<?xml version="1.0" encoding="UTF-8" standalone="no"?>
<svg
   xmlns:dc="http://purl.org/dc/elements/1.1/"
   xmlns:cc="http://creativecommons.org/ns#"
   xmlns:rdf="http://www.w3.org/1999/02/22-rdf-syntax-ns#"
   xmlns:svg="http://www.w3.org/2000/svg"
   xmlns="http://www.w3.org/2000/svg"
   id="svg24"
   version="1.1"
   viewBox="0 0 100 20"
   height="20px"
   width="100px">
  <metadata
     id="metadata28">
    <rdf:RDF>
      <cc:Work
         rdf:about="">
        <dc:format>image/svg+xml</dc:format>
        <dc:type
           rdf:resource="http://purl.org/dc/dcmitype/StillImage" />
      </cc:Work>
    </rdf:RDF>
  </metadata>
  <title
     id="title4">Logo</title>
  <desc
     id="desc6">Created with Sketch.</desc>
  <defs
     id="defs8" />
  <g
     style="fill:none;fill-rule:evenodd;stroke:none;stroke-width:1"
     id="Page-1">
    <g
       id="Logo">
      <g
         id=".com"
         style="font-weight:300;font-size:9px;font-family:OpenSans-Light, 'Open Sans', sans-serif;fill:#000000"
         aria-label=".com">
        <path
           id="path30"
           style=""
           d="m 80.344727,15 h -1.050293 v -1.252441 h 1.050293 z" />
        <path
           id="path32"
           style=""
           d="M 85.89502,14.692383 Q 85.481934,14.890137 85.108398,15 q -0.36914,0.109863 -0.786621,0.109863 -0.531738,0 -0.975586,-0.153808 -0.443847,-0.158203 -0.760254,-0.47461 -0.3208,-0.316406 -0.496582,-0.799804 -0.175781,-0.483399 -0.175781,-1.129395 0,-1.204101 0.65918,-1.889648 0.663574,-0.6855472 1.749023,-0.6855472 0.421875,0 0.826172,0.1186522 0.408692,0.118652 0.747071,0.290039 v 0.918457 h -0.04395 q -0.377929,-0.294433 -0.782226,-0.452636 -0.399903,-0.158204 -0.782227,-0.158204 -0.703125,0 -1.111816,0.47461 -0.404297,0.470215 -0.404297,1.384277 0,0.887695 0.395508,1.366699 0.399902,0.47461 1.120605,0.47461 0.250488,0 0.509766,-0.06592 0.259277,-0.06592 0.46582,-0.171387 0.180176,-0.09229 0.338379,-0.193359 0.158203,-0.105469 0.250488,-0.180176 h 0.04395 z" />
        <path
           id="path34"
           style=""
           d="m 91.14209,12.547852 q 0,1.199707 -0.615235,1.894043 -0.615234,0.694335 -1.647949,0.694335 -1.041504,0 -1.656738,-0.694335 -0.61084,-0.694336 -0.61084,-1.894043 0,-1.199707 0.61084,-1.894043 0.615234,-0.6987309 1.656738,-0.6987309 1.032715,0 1.647949,0.6987309 0.615235,0.694336 0.615235,1.894043 z m -0.852539,0 q 0,-0.953614 -0.373535,-1.415039 -0.373536,-0.465821 -1.03711,-0.465821 -0.672363,0 -1.045898,0.465821 -0.369141,0.461425 -0.369141,1.415039 0,0.922851 0.373535,1.401855 0.373535,0.474609 1.041504,0.474609 0.65918,0 1.032715,-0.470214 0.37793,-0.47461 0.37793,-1.40625 z" />
        <path
           id="path36"
           style=""
           d="m 99.588379,15 h -0.826172 v -2.794922 q 0,-0.316406 -0.03076,-0.61084 -0.02637,-0.294433 -0.118652,-0.470215 -0.101074,-0.188964 -0.290039,-0.285644 -0.188965,-0.09668 -0.544922,-0.09668 -0.347168,0 -0.694336,0.175781 -0.347168,0.171387 -0.694336,0.439454 0.01318,0.101074 0.02197,0.237304 0.0088,0.131836 0.0088,0.263672 V 15 H 95.59375 v -2.794922 q 0,-0.325195 -0.03076,-0.615234 -0.02637,-0.294434 -0.118652,-0.470215 -0.101074,-0.188965 -0.290039,-0.28125 -0.188965,-0.09668 -0.544922,-0.09668 -0.338379,0 -0.681152,0.166992 -0.338379,0.166993 -0.676758,0.42627 V 15 h -0.826172 v -4.908691 h 0.826172 v 0.544921 q 0.386719,-0.3208 0.769043,-0.500976 0.386719,-0.1801759 0.821777,-0.1801759 0.500977,0 0.848145,0.2109379 0.351562,0.210937 0.522949,0.584472 0.500976,-0.421875 0.914062,-0.606445 0.413086,-0.1889649 0.883301,-0.1889649 0.808594,0 1.190918,0.4921879 0.386719,0.487793 0.386719,1.366699 z" />
      </g>
      <g
         id="console"
         style="font-weight:normal;font-size:12px;font-family:'Open Sans', sans-serif;fill:#000000"
         aria-label="console">
        <path
           id="path39"
           style=""
           d="M 40.390625,14.589844 Q 39.839844,14.853516 39.341797,15 q -0.492188,0.146484 -1.048828,0.146484 -0.708985,0 -1.300782,-0.205078 -0.591796,-0.210937 -1.013671,-0.632812 -0.427735,-0.421875 -0.66211,-1.066406 -0.234375,-0.644532 -0.234375,-1.50586 0,-1.605469 0.878906,-2.5195311 0.884766,-0.9140625 2.332032,-0.9140625 0.5625,0 1.101562,0.1582031 0.544922,0.1582031 0.996094,0.3867188 v 1.2246097 h -0.05859 Q 39.828125,9.6796875 39.289062,9.46875 38.755859,9.2578125 38.246094,9.2578125 q -0.9375,0 -1.482422,0.6328125 -0.539063,0.626953 -0.539063,1.845703 0,1.183594 0.527344,1.822266 0.533203,0.632812 1.494141,0.632812 0.333984,0 0.679687,-0.08789 0.345703,-0.08789 0.621094,-0.228516 0.240234,-0.123047 0.451172,-0.257812 0.210937,-0.140625 0.333984,-0.240235 h 0.05859 z" />
        <path
           id="path41"
           style=""
           d="m 47.386719,11.730469 q 0,1.599609 -0.820313,2.52539 -0.820312,0.925782 -2.197265,0.925782 -1.388672,0 -2.208985,-0.925782 -0.814453,-0.925781 -0.814453,-2.52539 0,-1.59961 0.814453,-2.5253909 0.820313,-0.9316406 2.208985,-0.9316406 1.376953,0 2.197265,0.9316406 0.820313,0.9257809 0.820313,2.5253909 z m -1.136719,0 q 0,-1.271485 -0.498047,-1.886719 -0.498047,-0.6210937 -1.382812,-0.6210937 -0.896485,0 -1.394532,0.6210937 -0.492187,0.615234 -0.492187,1.886719 0,1.230469 0.498047,1.86914 0.498047,0.632813 1.388672,0.632813 0.878906,0 1.376953,-0.626953 Q 46.25,12.972656 46.25,11.730469 Z" />
        <path
           id="path43"
           style=""
           d="M 54.570312,15 H 53.46875 v -3.726562 q 0,-0.451172 -0.05273,-0.84375 Q 53.363281,10.03125 53.222656,9.8085938 53.076172,9.5625 52.800781,9.4453125 52.525391,9.3222656 52.085937,9.3222656 q -0.451171,0 -0.943359,0.2226563 -0.492187,0.2226562 -0.943359,0.5683591 V 15 H 49.097656 V 8.4550781 h 1.101563 v 0.7265625 q 0.515625,-0.4277343 1.066406,-0.6679687 0.550781,-0.2402344 1.130859,-0.2402344 1.060547,0 1.617188,0.6386719 0.55664,0.6386719 0.55664,1.8398436 z" />
        <path
           id="path45"
           style=""
           d="m 61.367187,13.113281 q 0,0.896485 -0.74414,1.470703 -0.738281,0.574219 -2.021485,0.574219 -0.726562,0 -1.335937,-0.169922 -0.603516,-0.175781 -1.013672,-0.380859 v -1.236328 h 0.05859 q 0.521484,0.392578 1.160156,0.626953 0.638672,0.228516 1.224609,0.228516 0.726563,0 1.136719,-0.234375 0.410156,-0.234375 0.410156,-0.738282 0,-0.386718 -0.222656,-0.585937 -0.222656,-0.199219 -0.855469,-0.339844 -0.234375,-0.05273 -0.615234,-0.123047 -0.375,-0.07031 -0.685547,-0.152344 -0.861328,-0.228515 -1.224609,-0.667968 -0.357422,-0.445313 -0.357422,-1.089844 0,-0.404297 0.164062,-0.7617189 0.169922,-0.3574218 0.509766,-0.6386718 0.328125,-0.2753907 0.832031,-0.4335938 0.509766,-0.1640625 1.136719,-0.1640625 0.585938,0 1.183594,0.1464844 0.603515,0.140625 1.001953,0.3457031 v 1.1777344 h -0.05859 Q 60.628906,9.65625 60.025391,9.4453125 59.421875,9.2285156 58.841797,9.2285156 q -0.603516,0 -1.019531,0.234375 -0.416016,0.2285157 -0.416016,0.6855474 0,0.404296 0.251953,0.609375 0.246094,0.205078 0.796875,0.333984 0.304688,0.07031 0.679688,0.140625 0.380859,0.07031 0.632812,0.128906 0.767578,0.175781 1.183594,0.603516 0.416015,0.433594 0.416015,1.148437 z" />
        <path
           id="path47"
           style=""
           d="m 68.527344,11.730469 q 0,1.599609 -0.820313,2.52539 -0.820312,0.925782 -2.197265,0.925782 -1.388672,0 -2.208985,-0.925782 -0.814453,-0.925781 -0.814453,-2.52539 0,-1.59961 0.814453,-2.5253909 0.820313,-0.9316406 2.208985,-0.9316406 1.376953,0 2.197265,0.9316406 0.820313,0.9257809 0.820313,2.5253909 z m -1.136719,0 q 0,-1.271485 -0.498047,-1.886719 -0.498047,-0.6210937 -1.382812,-0.6210937 -0.896485,0 -1.394532,0.6210937 -0.492187,0.615234 -0.492187,1.886719 0,1.230469 0.498047,1.86914 0.498047,0.632813 1.388672,0.632813 0.878906,0 1.376953,-0.626953 0.503906,-0.632813 0.503906,-1.875 z" />
        <path
           id="path49"
           style=""
           d="M 71.351562,15 H 70.25 V 5.8828125 h 1.101562 z" />
        <path
           id="path51"
           style=""
           d="m 79.021484,11.841797 h -4.822265 q 0,0.603516 0.18164,1.054687 0.181641,0.445313 0.498047,0.732422 0.304688,0.28125 0.720703,0.421875 0.421875,0.140625 0.925782,0.140625 0.667968,0 1.341796,-0.263672 0.679688,-0.269531 0.966797,-0.527343 h 0.05859 v 1.201172 q -0.556641,0.234375 -1.136719,0.392578 -0.580078,0.158203 -1.21875,0.158203 -1.628906,0 -2.542968,-0.878906 -0.914063,-0.884766 -0.914063,-2.507813 0,-1.605469 0.873047,-2.5488281 0.878906,-0.9433594 2.308594,-0.9433594 1.324218,0 2.039062,0.7734375 0.720703,0.7734375 0.720703,2.197266 z m -1.072265,-0.84375 q -0.0059,-0.867188 -0.439453,-1.341797 -0.427735,-0.4746094 -1.306641,-0.4746094 -0.884766,0 -1.412109,0.5214844 -0.521485,0.521484 -0.591797,1.294922 z" />
      </g>
      <g
         id="ES6"
         style="font-weight:bold;font-size:18px;font-family:Kollektif-Bold, Kollektif, sans-serif"
         aria-label="ES6">
        <path
           id="path54"
           style="fill:#000000"
           d="M 3.1950001,2.238 H 11.169 V 4.722 H 5.9310001 V 7.026 H 10.539 V 9.51 H 5.9310001 v 3.024 H 11.169 V 15 H 3.1950001 Z" />
        <path
           id="path56"
           style="fill:#000000"
           d="m 20.998125,8.43 q 0.756,0.45 1.152,1.152 0.396,0.702 0.396,1.62 0,0.864 -0.414,1.62 -0.414,0.738 -1.17,1.314 -0.684,0.522 -1.566,0.81 -0.864,0.27 -1.836,0.288 -0.972,0 -1.854,-0.27 -0.882,-0.27 -1.566,-0.81 -1.026,-0.774 -1.404,-1.872 l 2.52,-1.17 q 0,0.18 0.126,0.45 0.126,0.27 0.396,0.522 0.27,0.252 0.702,0.432 0.432,0.18 1.062,0.18 0.504,0 0.882,-0.126 0.396,-0.126 0.648,-0.306 0.27,-0.198 0.396,-0.432 0.144,-0.252 0.144,-0.504 0,-0.288 -0.198,-0.54 -0.18,-0.252 -0.576,-0.396 -0.72,-0.252 -1.53,-0.414 -0.792,-0.18 -1.548,-0.432 -0.756,-0.27 -1.404,-0.702 -0.648,-0.432 -1.026,-1.206 -0.342,-0.684 -0.342,-1.458 0,-0.864 0.396,-1.674 0.414,-0.81 1.116,-1.368 0.666,-0.522 1.494,-0.792 0.828,-0.288 1.746,-0.288 0.918,0 1.746,0.27 0.846,0.27 1.512,0.792 0.648,0.486 1.026,1.134 l -2.052,1.404 q -0.378,-0.522 -0.954,-0.828 -0.558,-0.324 -1.26,-0.324 -0.972,0 -1.512,0.432 -0.522,0.432 -0.522,1.134 0,0.324 0.288,0.576 0.306,0.252 0.774,0.45 0.486,0.198 1.08,0.36 0.594,0.144 1.17,0.306 0.594,0.144 1.116,0.306 0.522,0.162 0.846,0.36 z" />
        <path
           id="path58"
           style="fill:#feca00"
           d="m 30.951,7.116 q 0.864,0.63 1.35,1.602 0.504,0.954 0.504,2.07 0,0.918 -0.36,1.728 -0.342,0.792 -0.936,1.404 -0.594,0.612 -1.404,0.972 -0.792,0.342 -1.71,0.342 -0.918,0 -1.728,-0.342 -0.792,-0.36 -1.386,-0.972 -0.594,-0.612 -0.954,-1.404 -0.342,-0.81 -0.342,-1.728 0,-0.63 0.198,-1.206 0.198,-0.594 0.486,-1.152 0.018,-0.054 0.18,-0.342 0.162,-0.306 0.396,-0.738 0.234,-0.45 0.522,-0.99 0.288,-0.558 0.594,-1.134 0.72,-1.332 1.602,-2.988 h 3.078 L 28.719,6.45 q 0.63,0 1.188,0.18 0.576,0.18 1.044,0.486 z m -2.628,5.634 q 0.36,0 0.684,-0.144 0.324,-0.162 0.558,-0.414 0.252,-0.27 0.378,-0.612 0.144,-0.36 0.144,-0.738 0,-0.81 -0.504,-1.368 -0.486,-0.558 -1.332,-0.558 -0.324,0 -0.648,0.126 -0.324,0.126 -0.576,0.432 l -0.036,0.072 q -0.162,0.342 -0.306,0.702 -0.126,0.36 -0.126,0.594 0,0.378 0.126,0.738 0.144,0.342 0.378,0.612 0.252,0.252 0.576,0.414 0.324,0.144 0.684,0.144 z" />
      </g>
      <path
         style="stroke:#feca00;stroke-width:4"
         id="Path-3"
         d="M 3,17 H 100" />
    </g>
  </g>
</svg>
